# Blender v2.79 (sub 0) OBJ File: ''
# www.blender.org
mtllib ico.mtl
o Icosphere.019
v -0.894425 -0.447215 0.000000
v -0.276385 -0.447215 -0.850640
v -0.723600 0.447215 -0.525720
vn -0.7946 -0.1876 -0.5774
usemtl Material.002
s off
f 2//1 1//1 3//1
o Icosphere.018
v 0.723600 -0.447215 -0.525720
v -0.276385 -0.447215 -0.850640
v 0.276385 0.447215 -0.850640
vn 0.3035 -0.1876 -0.9342
usemtl Material.002
s off
f 4//2 5//2 6//2
o Icosphere.017
v 0.723600 -0.447215 0.525720
v 0.723600 -0.447215 -0.525720
v 0.894425 0.447215 0.000000
vn 0.9822 -0.1876 0.0000
usemtl Material.002
s off
f 7//3 8//3 9//3
o Icosphere.016
v 0.000000 -1.000000 0.000000
v -0.894425 -0.447215 0.000000
v -0.276385 -0.447215 -0.850640
vn -0.4911 -0.7947 -0.3568
usemtl Material.003
s off
f 10//4 11//4 12//4
o Icosphere.015
v 0.000000 -1.000000 0.000000
v 0.723600 -0.447215 0.525720
v 0.723600 -0.447215 -0.525720
vn 0.6071 -0.7947 0.0000
usemtl Material.003
s off
f 14//5 13//5 15//5
o Icosphere.014
v -0.276385 -0.447215 0.850640
v -0.894425 -0.447215 0.000000
v -0.723600 0.447215 0.525720
vn -0.7946 -0.1876 0.5774
usemtl Material.002
s off
f 17//6 16//6 18//6
o Icosphere.013
v -0.276385 -0.447215 0.850640
v 0.723600 -0.447215 0.525720
v 0.276385 0.447215 0.850640
vn 0.3035 -0.1876 0.9342
usemtl Material.002
s off
f 19//7 20//7 21//7
o Icosphere.012
v -0.276385 -0.447215 0.850640
v 0.000000 -1.000000 0.000000
v -0.894425 -0.447215 0.000000
vn -0.4911 -0.7947 0.3568
usemtl Material.003
s off
f 23//8 22//8 24//8
o Icosphere.011
v -0.276385 -0.447215 0.850640
v 0.000000 -1.000000 0.000000
v 0.723600 -0.447215 0.525720
vn 0.1876 -0.7947 0.5774
usemtl Material.003
s off
f 26//9 27//9 25//9
o Icosphere.010
v 0.276385 0.447215 -0.850640
v 0.894425 0.447215 0.000000
v 0.000000 1.000000 0.000000
vn 0.4911 0.7947 -0.3568
usemtl Material.001
s off
f 29//10 28//10 30//10
o Icosphere.009
v -0.723600 0.447215 -0.525720
v 0.276385 0.447215 -0.850640
v 0.000000 1.000000 0.000000
vn -0.1876 0.7947 -0.5774
usemtl Material.001
s off
f 32//11 31//11 33//11
o Icosphere.008
v -0.723600 0.447215 0.525720
v -0.723600 0.447215 -0.525720
v 0.000000 1.000000 0.000000
vn -0.6071 0.7947 0.0000
usemtl Material.001
s off
f 35//12 34//12 36//12
o Icosphere.007
v 0.276385 0.447215 0.850640
v -0.723600 0.447215 0.525720
v 0.000000 1.000000 0.000000
vn -0.1876 0.7947 0.5774
usemtl Material.001
s off
f 38//13 37//13 39//13
o Icosphere.006
v 0.723600 -0.447215 -0.525720
v 0.894425 0.447215 0.000000
v 0.276385 0.447215 -0.850640
vn 0.7946 0.1876 -0.5774
usemtl Material.002
s off
f 40//14 42//14 41//14
o Icosphere.005
v -0.276385 -0.447215 -0.850640
v -0.723600 0.447215 -0.525720
v 0.276385 0.447215 -0.850640
vn -0.3035 0.1876 -0.9342
usemtl Material.002
s off
f 43//15 44//15 45//15
o Icosphere.004
v -0.894425 -0.447215 0.000000
v -0.723600 0.447215 0.525720
v -0.723600 0.447215 -0.525720
vn -0.9822 0.1876 0.0000
usemtl Material.002
s off
f 46//16 47//16 48//16
o Icosphere.003
v -0.276385 -0.447215 0.850640
v 0.276385 0.447215 0.850640
v -0.723600 0.447215 0.525720
vn -0.3035 0.1876 0.9342
usemtl Material.002
s off
f 49//17 50//17 51//17
o Icosphere.002
v 0.723600 -0.447215 0.525720
v 0.894425 0.447215 0.000000
v 0.276385 0.447215 0.850640
vn 0.7946 0.1876 0.5774
usemtl Material.002
s off
f 52//18 53//18 54//18
o Icosphere.001
v 0.000000 -1.000000 0.000000
v 0.723600 -0.447215 -0.525720
v -0.276385 -0.447215 -0.850640
vn 0.1876 -0.7947 -0.5774
usemtl Material.003
s off
f 55//19 57//19 56//19
o Icosphere
v 0.894425 0.447215 0.000000
v 0.276385 0.447215 0.850640
v 0.000000 1.000000 0.000000
vn 0.4911 0.7947 0.3568
usemtl Material.001
s off
f 59//20 58//20 60//20
